<svg width="23" height="20" viewBox="0 0 23 20" fill="none" xmlns="http://www.w3.org/2000/svg">
<path d="M17.9688 0C18.1594 0 18.3427 0.0641379 18.4775 0.178711C18.6122 0.293271 18.6875 0.449361 18.6875 0.611328V1.22168H20.125C20.8875 1.22168 21.619 1.47921 22.1582 1.9375C22.6974 2.39579 23 3.0179 23 3.66602V17.1064C22.9999 17.7544 22.6972 18.3758 22.1582 18.834C21.619 19.2923 20.8875 19.5498 20.125 19.5498H2.875C2.1125 19.5498 1.38096 19.2923 0.841797 18.834C0.302861 18.3758 6.09465e-05 17.7544 0 17.1064V3.66602C0 3.01793 0.302686 2.39578 0.841797 1.9375C1.38096 1.47921 2.1125 1.22168 2.875 1.22168H4.3125V0.611328C4.3125 0.449297 4.38865 0.293284 4.52344 0.178711C4.65819 0.0643257 4.8408 5.4895e-06 5.03125 0C5.2217 0 5.40431 0.0643359 5.53906 0.178711C5.67385 0.293284 5.75 0.449297 5.75 0.611328V1.22168H17.25V0.611328C17.25 0.449297 17.3261 0.293284 17.4609 0.178711C17.5957 0.0643191 17.7783 1.96048e-05 17.9688 0ZM1.4375 17.1064C1.43756 17.4304 1.58887 17.7416 1.8584 17.9707C2.12797 18.1998 2.49382 18.3281 2.875 18.3281H20.125C20.5062 18.3281 20.872 18.1997 21.1416 17.9707C21.4111 17.7416 21.5624 17.4304 21.5625 17.1064V4.8877H1.4375V17.1064ZM15.0938 6.61133C15.1882 6.61137 15.2819 6.62982 15.3691 6.66602C15.4564 6.70225 15.5358 6.75537 15.6025 6.82227C15.6694 6.88901 15.7226 6.96838 15.7588 7.05566C15.795 7.14291 15.8134 7.23659 15.8135 7.33105C15.8135 7.42547 15.7949 7.51922 15.7588 7.60645C15.7226 7.69365 15.6693 7.77313 15.6025 7.83984L11.29 12.1523C11.2234 12.2192 11.1438 12.2724 11.0566 12.3086C10.9694 12.3448 10.8757 12.3642 10.7812 12.3643C10.6868 12.3643 10.5931 12.3448 10.5059 12.3086C10.4186 12.2724 10.3392 12.2193 10.2725 12.1523L8.11621 9.99609C8.04938 9.92927 7.99613 9.85001 7.95996 9.7627C7.92383 9.67542 7.90527 9.58176 7.90527 9.4873C7.9053 9.39288 7.92382 9.29916 7.95996 9.21191C7.99612 9.1247 8.04945 9.04528 8.11621 8.97852C8.25115 8.84373 8.43427 8.76758 8.625 8.76758C8.71939 8.76762 8.81318 8.78614 8.90039 8.82227C8.98765 8.85843 9.067 8.91173 9.13379 8.97852L10.7812 10.6279L14.585 6.82227C14.6517 6.75546 14.7312 6.7022 14.8184 6.66602C14.9056 6.62988 14.9993 6.61133 15.0938 6.61133Z" fill="#B9BBAC"/>
</svg>
