<svg width="23" height="21" viewBox="0 0 23 21" fill="none" xmlns="http://www.w3.org/2000/svg">
<path d="M4.44319 3.5C4.44319 2.57174 4.81493 1.6815 5.47663 1.02513C6.13834 0.368749 7.0358 0 7.97159 0H15.0284C15.9642 0 16.8617 0.368749 17.5234 1.02513C18.1851 1.6815 18.5568 2.57174 18.5568 3.5V17.5C18.5568 18.4283 18.1851 19.3185 17.5234 19.9749C16.8617 20.6312 15.9642 21 15.0284 21H7.97159C7.0358 21 6.13834 20.6312 5.47663 19.9749C4.81493 19.3185 4.44319 18.4283 4.44319 17.5V3.5ZM13.2642 15.75C13.2642 15.2859 13.0783 14.8408 12.7475 14.5126C12.4166 14.1844 11.9679 14 11.5 14C11.0321 14 10.5834 14.1844 10.2525 14.5126C9.92167 14.8408 9.7358 15.2859 9.7358 15.75C9.7358 16.2141 9.92167 16.6592 10.2525 16.9874C10.5834 17.3156 11.0321 17.5 11.5 17.5C11.9679 17.5 12.4166 17.3156 12.7475 16.9874C13.0783 16.6592 13.2642 16.2141 13.2642 15.75ZM3.18793 4.7845C3.29742 4.57936 3.32026 4.33947 3.25145 4.11761C3.18263 3.89576 3.02778 3.71011 2.82097 3.6015C2.61416 3.49289 2.37233 3.47023 2.14868 3.53849C1.92502 3.60676 1.73786 3.76035 1.62837 3.9655C0.555713 5.97905 -0.00336578 8.2226 1.52442e-05 10.5C1.52442e-05 12.8572 0.589259 15.0815 1.62837 17.0345C1.68259 17.1361 1.75644 17.2261 1.84571 17.2993C1.93499 17.3726 2.03793 17.4277 2.14868 17.4615C2.25942 17.4953 2.37579 17.5071 2.49114 17.4963C2.6065 17.4855 2.71857 17.4523 2.82097 17.3985C2.92338 17.3447 3.0141 17.2715 3.08796 17.1829C3.16182 17.0944 3.21737 16.9922 3.25145 16.8824C3.28552 16.7725 3.29745 16.6571 3.28655 16.5427C3.27565 16.4283 3.24214 16.3171 3.18793 16.2155C2.24981 14.4543 1.76098 12.4919 1.76422 10.5C1.76422 8.435 2.27936 6.489 3.18793 4.7845ZM21.3716 3.9655C21.2621 3.76035 21.075 3.60676 20.8513 3.53849C20.6277 3.47023 20.3858 3.49289 20.179 3.6015C19.9722 3.71011 19.8174 3.89576 19.7485 4.11761C19.6797 4.33947 19.7026 4.57936 19.8121 4.7845C20.7206 6.489 21.2358 8.43325 21.2358 10.5C21.2358 12.565 20.7206 14.511 19.8121 16.2155C19.7026 16.4206 19.6797 16.6605 19.7485 16.8824C19.8174 17.1042 19.9722 17.2899 20.179 17.3985C20.3858 17.5071 20.6277 17.5298 20.8513 17.4615C21.075 17.3932 21.2621 17.2396 21.3716 17.0345C22.4443 15.0209 23.0034 12.7774 23 10.5C23.0034 8.2226 22.4443 5.97905 21.3716 3.9655Z" fill="#B9BBAC"/>
</svg>
