<svg width="23" height="21" viewBox="0 0 23 21" fill="none" xmlns="http://www.w3.org/2000/svg">
<path d="M20.125 0C20.8875 3.39254e-05 21.619 0.302685 22.1582 0.841797C22.6974 1.38095 22.9999 2.11252 23 2.875V14.376C23 15.138 22.6978 15.8691 22.1592 16.4082C21.6206 16.9473 20.89 17.2502 20.1279 17.251C20.1279 18.0135 19.8244 18.745 19.2852 19.2842C18.7459 19.8233 18.0145 20.127 17.252 20.127H2.875C2.11254 20.1268 1.38095 19.8233 0.841797 19.2842C0.302757 18.745 0 18.0134 0 17.251V5.75C0.000118329 4.98827 0.302533 4.25774 0.84082 3.71875C1.37933 3.17973 2.11013 2.87588 2.87207 2.875C2.87213 2.11252 3.17566 1.38095 3.71484 0.841797C4.25406 0.302738 4.98556 0 5.74805 0H20.125ZM2.875 4.3125C2.49384 4.3126 2.12793 4.46486 1.8584 4.73438C1.58915 5.00383 1.43762 5.36909 1.4375 5.75V17.251L5.24219 13.8672C5.35965 13.7502 5.51376 13.6774 5.67871 13.6611C5.84379 13.6449 6.00938 13.6864 6.14746 13.7783L9.97168 16.3271L15.3057 10.9932C15.4122 10.8866 15.5496 10.8163 15.6982 10.792C15.8471 10.7677 16.0008 10.791 16.1357 10.8584L18.6904 13.6572V5.75C18.6903 5.3689 18.538 5.00387 18.2686 4.73438C17.9989 4.46477 17.6333 4.3125 17.252 4.3125H2.875ZM5.74805 1.4375C5.36685 1.4375 5.00105 1.58893 4.73145 1.8584C4.46188 2.12795 4.31061 2.4938 4.31055 2.875H17.252C18.0146 2.875 18.7459 3.17856 19.2852 3.71777C19.8243 4.25688 20.1278 4.98761 20.1279 5.75V15.8135C20.5087 15.8127 20.8736 15.6611 21.1426 15.3916C21.4115 15.1221 21.5625 14.7567 21.5625 14.376V2.875C21.5624 2.4938 21.4112 2.12795 21.1416 1.8584C20.872 1.58887 20.5062 1.43753 20.125 1.4375H5.74805ZM6.46973 7.18848C7.04145 7.18854 7.5898 7.41517 7.99414 7.81934C8.39857 8.22374 8.62598 8.77281 8.62598 9.34473C8.62591 9.91656 8.39852 10.4648 7.99414 10.8691C7.58977 11.2735 7.04157 11.5009 6.46973 11.501C5.89778 11.501 5.34877 11.2735 4.94434 10.8691C4.54009 10.4648 4.31256 9.91646 4.3125 9.34473C4.3125 8.77281 4.53991 8.22374 4.94434 7.81934C5.34876 7.41496 5.8978 7.18848 6.46973 7.18848Z" fill="#B9BBAC"/>
</svg>
