<svg width="23" height="22" viewBox="0 0 23 22" fill="none" xmlns="http://www.w3.org/2000/svg">
<path d="M20.6992 12.3975V18.8477C20.6992 19.4575 20.4566 20.0424 20.0254 20.4736C19.5941 20.9049 19.0093 21.1474 18.3994 21.1475H4.60059C3.99072 21.1475 3.40589 20.9048 2.97461 20.4736C2.54335 20.0424 2.30083 19.4575 2.30078 18.8477V12.3975L11.5 3.19824L20.6992 12.3975ZM11.5 0C11.9066 0 12.2965 0.161789 12.584 0.449219L16.0996 3.96387V1.98242C16.0996 1.77911 16.1805 1.58419 16.3242 1.44043C16.468 1.29667 16.6629 1.21582 16.8662 1.21582H18.3994C18.6027 1.21584 18.7977 1.29668 18.9414 1.44043C19.0851 1.58419 19.166 1.77914 19.166 1.98242V7.0293L22.7754 10.6387C22.9193 10.7826 23 10.9781 23 11.1816C23 11.3852 22.9193 11.5807 22.7754 11.7246C22.6315 11.8685 22.4359 11.9492 22.2324 11.9492C22.0289 11.9492 21.8334 11.8685 21.6895 11.7246L11.5 1.5332L1.31055 11.7246C1.16661 11.8685 0.971121 11.9492 0.767578 11.9492C0.564036 11.9492 0.368551 11.8685 0.224609 11.7246C0.0806903 11.5807 3.24988e-05 11.3852 0 11.1816C0 10.9781 0.0806966 10.7826 0.224609 10.6387L10.416 0.449219C10.7035 0.161801 11.0935 1.30653e-05 11.5 0Z" fill="#B9BBAC"/>
</svg>
