<svg width="18" height="23" viewBox="0 0 18 23" fill="none" xmlns="http://www.w3.org/2000/svg">
<path d="M8.625 23C8.625 23 17.25 14.8264 17.25 8.625C17.25 6.33751 16.3413 4.14371 14.7238 2.5262C13.1063 0.908703 10.9125 0 8.625 0C6.33751 0 4.14371 0.908703 2.5262 2.5262C0.908703 4.14371 3.40863e-08 6.33751 0 8.625C0 14.8264 8.625 23 8.625 23ZM8.625 12.9375C7.48125 12.9375 6.38435 12.4831 5.5756 11.6744C4.76685 10.8656 4.3125 9.76875 4.3125 8.625C4.3125 7.48125 4.76685 6.38435 5.5756 5.5756C6.38435 4.76685 7.48125 4.3125 8.625 4.3125C9.76875 4.3125 10.8656 4.76685 11.6744 5.5756C12.4831 6.38435 12.9375 7.48125 12.9375 8.625C12.9375 9.76875 12.4831 10.8656 11.6744 11.6744C10.8656 12.4831 9.76875 12.9375 8.625 12.9375Z" fill="#B9BBAC"/>
</svg>
