<svg width="23" height="20" viewBox="0 0 23 20" fill="none" xmlns="http://www.w3.org/2000/svg">
<path d="M11.5 1.32994C12.9159 0.0596028 14.9692 -0.130221 16.8379 0.0662691C19.0141 0.295828 21.2107 1.07404 22.5791 1.7235C22.7045 1.78309 22.8111 1.87894 22.8857 1.99986C22.9604 2.12088 23 2.26217 23 2.40611V18.9061C22.9999 19.0314 22.9696 19.1545 22.9121 19.2645C22.8545 19.3747 22.771 19.4681 22.6699 19.536C22.5688 19.6039 22.4529 19.6451 22.333 19.6542C22.2132 19.6632 22.0927 19.6406 21.9834 19.5887C20.717 18.9888 18.6732 18.267 16.6924 18.0585C14.6684 17.8455 12.9705 18.1889 12.0605 19.3739C11.9932 19.4614 11.9076 19.5324 11.8105 19.5809C11.7136 19.6294 11.6075 19.6542 11.5 19.6542C11.3925 19.6542 11.2864 19.6294 11.1895 19.5809C11.0924 19.5323 11.0068 19.4615 10.9395 19.3739C10.0296 18.1889 8.33195 17.8455 6.30664 18.0585C4.32724 18.267 2.28449 18.9887 1.0166 19.5887C0.907234 19.6406 0.786824 19.6632 0.666992 19.6542C0.547069 19.6451 0.431193 19.6039 0.330078 19.536C0.228951 19.4681 0.145506 19.3747 0.0878906 19.2645C0.0304314 19.1545 7.42422e-05 19.0314 0 18.9061V2.40611C3.81965e-05 2.26217 0.0395733 2.12088 0.114258 1.99986C0.188885 1.87895 0.295464 1.78309 0.420898 1.7235C1.7893 1.07405 3.98589 0.295836 6.16211 0.0662691C8.03076 -0.12872 10.0841 0.0596302 11.5 1.32994ZM16.6924 1.55846C14.7805 1.35746 13.1589 1.65289 12.2188 2.68639V17.3055C13.5628 16.509 15.2653 16.4007 16.8379 16.5672C18.534 16.7443 20.243 17.2572 21.5625 17.7821V2.8983C20.2903 2.34331 18.4662 1.74447 16.6924 1.55846ZM15.8125 12.0145C17.4417 12.0145 18.9175 12.3558 20.125 12.9911V14.9442C19.0421 14.1913 17.5375 13.7792 15.8125 13.7792C14.9693 13.7792 14.1548 13.8849 13.417 14.0848V12.2967C14.174 12.1086 14.9885 12.0145 15.8125 12.0145ZM15.8125 8.08482C17.4416 8.08483 18.9175 8.4379 20.125 9.06139V11.0145C19.0421 10.2616 17.5375 9.84947 15.8125 9.84947C14.9693 9.84947 14.1548 9.95616 13.417 10.1561V8.36803C14.174 8.19159 14.9884 8.08482 15.8125 8.08482ZM15.8125 4.15611C17.4417 4.15611 18.9175 4.49738 20.125 5.13268V7.08482C19.0421 6.33197 17.5374 5.92076 15.8125 5.92076C14.9693 5.92076 14.1548 6.02648 13.417 6.22643V4.43834C14.174 4.26191 14.9884 4.15611 15.8125 4.15611Z" fill="#B9BBAC"/>
</svg>
