<svg width="24" height="24" viewBox="0 0 24 24" fill="none" xmlns="http://www.w3.org/2000/svg">
<path d="M24 18C24 21.3137 21.3137 24 18 24H6C2.68629 24 0 21.3137 0 18V6C0 2.68629 2.68629 0 6 0H18C21.3137 0 24 2.68629 24 6V18ZM7.12402 5C6.89451 5 6.52037 5.08614 6.20508 5.43164C5.88942 5.77743 5 6.61021 5 8.30566C5.00014 10.0016 6.23452 11.6393 6.40625 11.8691C6.57896 12.0987 8.83462 15.5791 12.29 17.0713C13.1119 17.4261 13.7543 17.639 14.2539 17.7979C15.079 18.0597 15.8305 18.0227 16.4238 17.9346C17.0858 17.8358 18.4616 17.1004 18.749 16.2959C19.0364 15.4902 19.0361 14.8 18.9492 14.6562C18.8633 14.5127 18.6333 14.4265 18.2881 14.2539C17.9427 14.0806 16.2512 13.2477 15.9346 13.1328C15.6194 13.0181 15.3898 12.9605 15.1592 13.3057C14.9298 13.6498 14.2693 14.4262 14.0684 14.6562C13.8678 14.8858 13.6656 14.9149 13.3213 14.7422C12.9767 14.5694 11.866 14.2064 10.5508 13.0322C9.52758 12.1188 8.83543 10.9912 8.63477 10.6455C8.43423 10.3012 8.61458 10.114 8.78613 9.94238C8.94135 9.78824 9.13016 9.54046 9.30273 9.33887C9.47772 9.1395 9.53454 8.99527 9.65039 8.76465C9.76515 8.53509 9.70803 8.33291 9.62109 8.16016C9.53328 7.9863 8.84566 6.29184 8.55957 5.60254C8.27909 4.93154 7.99512 5.02215 7.78418 5.01172L7.12402 5Z" fill="#2D7A77"/>
</svg>
