<svg width="24" height="24" viewBox="0 0 24 24" fill="none" xmlns="http://www.w3.org/2000/svg">
<path d="M12 0.25C18.4893 0.25 23.75 5.51065 23.75 12C23.75 18.4893 18.4893 23.75 12 23.75C5.51065 23.75 0.25 18.4893 0.25 12C0.25 5.51065 5.51065 0.25 12 0.25ZM16.9023 6.97461C16.6317 6.97938 16.3112 7.05485 15.6631 7.29004C15.0107 7.52681 13.999 7.93539 12.334 8.62793C11.7492 8.87114 10.8732 9.24433 9.70605 9.74707L5.33984 11.6406C5.04693 11.7571 4.8076 11.8788 4.63379 12.0078C4.46658 12.132 4.31748 12.2948 4.29102 12.5049C4.27215 12.6554 4.30607 12.7942 4.38672 12.9131C4.46276 13.0249 4.57131 13.1071 4.68164 13.1699C4.89659 13.2922 5.19713 13.3849 5.49805 13.4795C5.58292 13.5062 5.67013 13.5337 5.75879 13.5625C6.06853 13.6632 6.43394 13.7733 6.77734 13.8594C7.11484 13.944 7.45183 14.0103 7.69629 14.0156C8.15729 14.0255 8.64281 13.8357 9.14453 13.4912L9.14355 13.4902C10.7768 12.3878 12.0152 11.5596 12.8574 11.0029C13.2789 10.7244 13.6001 10.5142 13.8223 10.373C13.8729 10.3409 13.9183 10.3128 13.958 10.2881C13.9297 10.3185 13.9009 10.3535 13.8672 10.3887C13.6815 10.5822 13.4262 10.8334 13.1416 11.1074C12.5729 11.6549 11.8935 12.2867 11.4287 12.7188C11.1444 12.9831 10.9302 13.1822 10.8818 13.2324C10.7916 13.3262 10.699 13.4156 10.6064 13.5049C10.467 13.6393 10.322 13.7786 10.207 13.918C10.0928 14.0566 9.98717 14.2189 9.9502 14.4062C9.86761 14.8255 10.1445 15.1817 10.666 15.5254C11.1543 15.8472 11.5453 16.1135 11.9365 16.3799C12.3637 16.6708 12.7915 16.9625 13.3447 17.3252C13.4803 17.4141 13.6111 17.5061 13.7422 17.5996C14.2206 17.9407 14.7447 18.3283 15.4053 18.2676C15.9051 18.2216 16.2756 17.7571 16.4482 16.834C16.8456 14.7095 17.6297 10.0947 17.8115 8.18457C17.83 7.98992 17.8065 7.75411 17.7881 7.64648C17.7694 7.53758 17.7233 7.32761 17.5293 7.16992C17.4178 7.07944 17.2866 7.0312 17.1807 7.00586C17.0733 6.9802 16.9717 6.97342 16.9023 6.97461Z" fill="#3A918C" stroke="#3A918C" stroke-width="0.5"/>
</svg>
